# Blender v2.66 (sub 1) OBJ File: ''
# www.blender.org
o Cube.002
v 380.683075 77.130493 -139.966034
v 316.903900 -50.507130 0.179802
v 246.562897 -171.879517 -142.371552
v 310.342072 -44.241856 -282.517365
v 204.659332 171.879517 -133.780319
v 140.880127 44.241825 6.365451
v 70.539154 -77.130493 -136.185928
v 134.318314 50.507133 -276.331726
vn 0.880119 -0.473745 -0.030928
vn -0.880119 0.473745 0.030928
vn 0.351705 0.606862 0.712757
vn -0.318896 -0.638188 0.700729
vn -0.351705 -0.606862 -0.712757
vn 0.318896 0.638188 -0.700729
s off
f 1//1 2//1 3//1
f 5//2 8//2 7//2
f 1//3 5//3 2//3
f 2//4 6//4 3//4
f 3//5 7//5 8//5
f 5//6 1//6 8//6
f 4//1 1//1 3//1
f 6//2 5//2 7//2
f 6//4 7//4 3//4
f 1//6 4//6 8//6
f 4//5 3//5 8//5
f 5//3 6//3 2//3
o Cube.001
v -216.575989 -96.823738 182.844543
v -40.698807 -156.516953 257.033051
v -88.197289 -76.461845 434.050232
v -264.074463 -16.768644 359.861664
v -134.046463 76.461823 126.621872
v 41.830696 16.768648 200.810501
v -5.667843 96.823769 377.827606
v -181.544983 156.516953 303.639038
vn -0.412647 -0.866428 0.281113
vn 0.412647 0.866428 -0.281113
vn 0.237492 -0.400276 -0.885086
vn 0.879386 -0.298466 0.370943
vn -0.237493 0.400275 0.885086
vn -0.879386 0.298466 -0.370943
vn -0.237493 0.400276 0.885086
vn 0.237493 -0.400275 -0.885086
s off
f 9//7 10//7 11//7
f 13//8 16//8 15//8
f 9//9 13//9 10//9
f 10//10 14//10 11//10
f 11//11 15//11 16//11
f 13//12 9//12 16//12
f 12//7 9//7 11//7
f 14//8 13//8 15//8
f 14//10 15//10 11//10
f 9//12 12//12 16//12
f 12//13 11//13 16//13
f 13//14 14//14 10//14
o Cube
v -11.121895 -100.000000 -238.075958
v -11.121895 -100.000000 -38.075958
v -211.121902 -100.000000 -38.075977
v -211.121857 -100.000000 -238.075989
v -11.121847 100.000000 -238.075897
v -11.121961 100.000000 -38.075897
v -211.121933 100.000000 -38.075993
v -211.121887 100.000000 -238.075958
vn 0.000000 -1.000000 0.000000
vn -0.000000 1.000000 0.000000
vn 1.000000 -0.000000 0.000000
vn -0.000000 -0.000000 1.000000
vn -1.000000 -0.000000 -0.000000
vn 0.000000 0.000000 -1.000000
vn 1.000000 0.000000 0.000001
s off
f 17//15 18//15 19//15
f 21//16 24//16 23//16
f 17//17 21//17 18//17
f 18//18 22//18 19//18
f 19//19 23//19 24//19
f 21//20 17//20 24//20
f 20//15 17//15 19//15
f 22//16 21//16 23//16
f 22//18 23//18 19//18
f 17//20 20//20 24//20
f 20//19 19//19 24//19
f 21//21 22//21 18//21
